<?xml version="1.0" encoding="UTF-8"?>
<svg id="grafica" xmlns="http://www.w3.org/2000/svg" viewBox="0 0 419.53 213.33">
  <defs>
    <style>
      .cls-1 {
        fill: #7d9bc0;
      }

      .cls-2 {
        fill: #f1e782;
        stroke: #f1e782;
        stroke-miterlimit: 10;
        stroke-width: .5px;
      }

      .cls-3 {
        fill: #92ad6c;
      }
    </style>
  </defs>
  <g>
    <path class="cls-3" d="M365.36,121.32l-.66.51-4.21,4.6c-2.05,2.24-3.43,4.77-4.57,7.5h.85c1.06-2.62,2.57-5.02,4.56-7.27l4.11-4.66c.06-.06,0-.73-.08-.68Z"/>
    <path class="cls-3" d="M397.49,205.15l-.49-.2c-3.35-.4-6.59-.45-9.99-.2-3.77-.08-7.42-.24-11.14-.89l-5.16-1.68-2.84-1.22c-5.16-2.22-8.08-4.9-8.21-10.61-.18-7.73-.79-15.2-1.93-22.86l-1.63-16.73-.35-11.18h-.65l.4,12.13,1.72,16.49c1.17,7.57,1.58,14.96,1.82,22.6.2,6.41,3.91,8.61,9.22,10.94l5.35,2.35c-4.73-.51-9.06-.58-13.63.03-4.44.6-8.73.62-11.79-2.46-3.01-3.03-7.35-2.52-11.3-.95-3.9,1.55-7.78,2.7-12,2.93l-6.04.34c6.22-2.29,12.53-4.1,14.97-10.41,3.05-7.9,4.3-23.17,4.9-32.32.29-4.39-.07-8.59-.42-12.96-.19-2.32-.41-4.59-.99-6.82h-.71l.78,4.14c.47,4.51.97,8.87.78,13.47-.32,8.01-1.15,15.77-2.37,23.66-.52,3.35-1.19,6.49-2.23,9.65-2.29,6.97-8.87,8.86-15.52,11.11l-1.44.64-11.16,1.1c3.85.87,7.42-.4,11.19-.53l6.3-.21c3.89-.13,7.63-.95,11.34-2.14l6.46-2.08c2.36-.76,4.93-.06,6.72,1.65,1.22,1.16,2.54,2.27,4.25,2.64,2.57.56,5.17.56,7.8.21,4.88-.65,9.55-.68,14.41.18.57.1,1.18.03,1.54-.47,4.73.76,9.64.97,14.62.78,2.41-.09,4.66.04,6.98.35h.43c.1,0,.09-.41,0-.45Z"/>
    <path class="cls-3" d="M343.16,87.42c3.86,8.96,4.03,18.56.92,27.7-.1.3-.62.72-.89.79-.87.24-2.07-.93-2.21-2.25l1.8,1.61c.58-.18.84-.89,1.05-1.56,1.92-6.4,2.44-13.02.91-19.52-.79-3.33-1.82-6.33-3.7-9.12l-1.91-2.84-6.51-7.24-1.92-3.04-4.48-7.89c-.92-1.62-2.73-4.09-2.05-5.44.1-.19.73.06.88.23,2.03,2.26,3.54,4.87,4.58,7.73,1.62,4.46,2.68,7,6.15,10.45,5.45,5.42,10.06,11.55,11.52,19.2l.77,4.04.78,4.76c.04.26.39.74.67.96l3.58-5.54,2.15-3.79c3.51-7.5,5.66-15.42,6.65-23.66l.86-7.15c.28-2.37-3.18-8.68-.35-11.39,1.35,1.44,1.65,3.33,1.56,5.26l-.32,6.37.72,9.66c.03.46.27,1.03.57,1.45l3.85-2.76c3.8-2.05,6.84-4.71,9.27-8.29.55-.81,1.33-1.61,2.23-1.91-.21,1.68-1.17,2.63-2.08,3.74-4.23,5.17-8.2,10.35-11.53,16.17-2.57,4.49-4.84,8.89-6.78,13.63l-1.25,3.07c-2.3,5.62-3.86,11.28-5.63,17.27-.13-2.66.75-5.23,1.66-7.77l3.88-10.83c2.48-5.95,5.12-11.6,8.44-17.15,2.44-4.08,5.13-7.69,8.03-11.49l-5.04,3.57-4.17,2.95c-.24.17-.85.38-1.12.32-.31-.07-.81-.69-.83-1.01l-.7-8.37c-.75,5.72-1.44,10.92-2.86,16.31-1.07,4.07-2.5,7.84-4.21,11.67l-2.26,4.16-3.32,5.47c-.18.29-.97.58-1.3.54s-.82-.59-.89-.97l-1.3-7.97c-.59-3.64-1.8-7.06-3.87-10.13ZM362.99,63.8c.45-2.89.56-5.93-.56-8.43-.65,1.45-.57,2.87-.28,4.31l.84,4.13ZM330.09,69.66l-2.46-6.07c-.61-1.5-1.69-2.69-2.77-4,.14,1.2.61,2.08,1.19,2.99l1.97,3.7c.64,1.2,1.17,2.33,2.07,3.38Z"/>
    <path class="cls-3" d="M289.08,84.98c.86,2.08.68,4.08-.9,5.63l-2.51,2.46c-1.81,1.78-2.64,4.24-1.38,6.36,1.23,2.06,4.75,1.2,5.77,3.47l-2.91-1.12c-1.46-.56-2.84-.86-3.58-2.15-1.94-3.39.95-6.59,3.79-9.13,1.57-1.4,2.08-3.25,1.22-5.17-.98-2.18-.38-4.65,1.5-6.15,3.16-2.52,7-1.58,8.25-3.32s2.99-2.82,5.24-2.36,4.25.04,6.33-.82c2.86-1.19,6.03-.36,8.61,1.23,2.24,1.38,5.17,2.76,6.88,1.23-.12-1.01-1.03-1.89-1.91-2.15l-3.33-1c-2.35-.71-5.1-1.72-6.31-4.01-1.28-2.41-3.05-4.24-6.04-4.28l-3.25-.04c-2.94-.03-5.11-1.72-6.46-4.18-1.28-2.34-1.26-4.98.54-7.16l2.93-2.92c1.56-1.55,1.94-3.64,1.15-5.68-1.1-2.83-.33-6.04,2.19-7.84,1.58-1.12,2.53-2.58,3.86-4,3.47-3.69,9.47-3.28,13.08.02,2.6,2.38,4.5.66,6.4,2.9.96,1.13,2.68,1.79,4.02.88.76-.52.54-1.91.12-2.62l-3.17-5.41c-2.43-4.15-2.06-8.69,2.12-11.36l5.47-2.62c2.25-1.08,4.31-2.51,6.79-3.1,2.41-.58,4.89-.33,7.01.91,1.99,1.17,4.11,1.27,6.29.53,2.54-.86,6.18-.96,6.95,1.26-2.22-1.4-4.42-1.49-6.79-.65-2.15.77-4.48.76-6.45-.42-2.18-1.3-4.6-1.61-7.07-.98s-4.54,1.97-6.82,3.13l-5.33,2.71c-3.02,1.99-3.88,5.6-2.25,8.81l1.35,2.66,2.52,4.33c.71,1.22.6,2.94-.73,3.58-1.66.81-3.51.05-4.61-1.32-1.73-2.18-3.72-.22-6.2-2.58-3.87-3.7-10.01-3.45-12.84.43-.81,1.11-1.64,2.13-2.79,2.9-2.6,1.74-3.64,4.74-2.51,7.7.88,2.33.33,4.59-1.45,6.38l-2.81,2.83c-1.84,1.86-1.56,4.53-.25,6.65,1.19,1.93,2.84,3.48,5.26,3.55l3.51.09c2.61.06,4.91,1.24,6.11,3.55,2.6,4.97,7.09,4.24,10.67,6.14.91.49,1.95,1.44,1.65,2.55-.53,1.95-4.17,1.28-7.05-.45-3.13-1.89-6.04-2.84-9.47-1.4-1.92.8-3.89,1.11-5.92.69s-3.67.5-4.77,2.21c-1.35,2.1-5.57.61-8.79,3.74-1.21,1.17-1.63,3.16-.93,4.87Z"/>
    <path class="cls-3" d="M352.03,124.31c-.03.21.15,1.02.33.99l.78-.11,8.81-6.61c3.76-2.91,7.31-5.89,10.28-9.61,1.62-2.03,2.43-4.43,4.34-6.41.26,1.39-.36,2.55-1,3.58l-4.63,7.44-3.18,4.43c-.23.33-.51.93-.42,1.24s.84.8,1.2.74l4.13-.63c5.64-.86,6.75,1.68,10.41,3.04s8.01-.71,9.04-3.08c1.17-2.69,3.99-3.98,6.88-3.01,3.22,1.08,6.4,1.19,9.58-.19,1.52-.66,2.91-1.54,3.35-3.34.79-3.28-.85-5.42.67-8.54,1.78-3.67.22-8.83-3.76-10.67-1.14-.53-2.08-1.5-2.4-2.79-.72-2.88-3.09-4.82-6.17-4.85-3.25-.04-5.82,1.63-8.7.29-.61-.28-1.24-.92-1.38-1.41-.49-1.71,1.35-3.87,3.37-4.01l-2.24,1.96c-.29.25-.63,1.09-.61,1.46.02.42.56,1.08,1.03,1.33,2.9,1.52,5.86-.7,9.81-.12,2.73.4,4.69,2.27,5.37,4.86.33,1.26,1.29,2.26,2.39,2.79,4.18,2.05,5.75,7.31,3.91,11.32-1.67,3.65.69,5.98-1.14,9.71-.8,1.62-2.33,2.24-3.89,2.8-3.13,1.12-6.22,1.1-9.37-.04-1.91-.69-4.33-.15-5.36,1.59-.44.75-.84,1.37-1.38,1.97-3.14,3.48-8,3.96-11.85,1.23-1.98-1.4-4.37-2.29-6.82-1.85l-4.68.85c-.58.11-1.52-.32-1.81-.72s-.38-1.51-.06-1.94c2.11-2.85,4.36-5.36,5.98-8.59-3.07,3.45-6.15,6.34-9.74,9.11l-9.87,7.42h-1.28c-.96,0-.19-4.95.54-7.43.16.12.42.32.43.33l-.89,5.43Z"/>
    <path class="cls-3" d="M394.68,80.33c1.77-.78,3.09-1.54,3.85-3.2,1.57-3.41,6.27-2.46,8.14-6.31l.79-2.79c1.07-3.76-1.68-6.08-5.28-7.35-2.28-.81-4.33-2.75-4.55-5.14-.32-3.32-2.61-5.9-5.96-6.4-5.05-.76-7.68,3.74-12.14,1.69-2.51-1.16-4.82,1.06-7.77.48-.65-.13-1.47-.63-1.69-1.08-1.06-2.16,1.47-5.02,5.06-5.52,1.83-.26,3.8-.88,4.87-2.45l1.45-2.11c3.35-4.85-2.07-4.67-1.58-10.54.28-3.35-1.87-6.17-5.16-6.69l-3.81-.18c-3.74-.18-6.11-1.04-6.24-4.76l-.14-3.65c.59.83.74,1.91.65,2.94-.2,2.15.89,3.88,2.98,4.49,1.71.49,3.52.53,5.37.47,2.2-.07,4.34.93,5.69,2.62,1.13,1.41,1.38,3.23,1.21,4.99-.46,4.73,5.24,5.69,1.59,10.65l-1.7,2.31c-1.1,1.5-2.83,2.26-4.64,2.45-3.11.32-5.73,2.68-5.04,4.43.17.42.88.97,1.49,1.08,2.43.43,4.9-1.59,7.21-.64,4.61,1.91,6.49-1.63,11.26-1.68,3.99-.04,7.23,2.81,7.66,6.71.25,2.3,1.72,3.9,3.77,4.8l1.96.86c1.62.71,3.17,1.75,3.94,3.39s.3,3.3-.04,4.94c-1.45,6.8-7.26,4.19-9.28,9.18-1,1.2-2.07,2.65-3.89,2.01Z"/>
    <path class="cls-3" d="M331.52,109.87l-5.13-4.74c-1.17.69-2.12,1.53-3.18,2.47-1.77,1.57-4.53,2.23-6.63.66l2.8.16c1.79.1,3.18-.85,4.17-2.12l2.04-1.59-5.15-3.3c-1.23-.79-5.87-1.71-6.19-3.63-.13-.79,2.3-.15,4.37,1.16,2.42,1.54,4.77,2.69,7.69,3.23.61-3.48-2.69-7.7-1.55-9.54.5-.8,1.81,2,2.34,4.72.73,3.73,1.89,6.95,5.35,8.63,3.13,1.72,5.75,3.94,8.08,6.62l.15.38c.03.08.07.38-.01.36l-.67-.23c-2.24-2.83-5.02-4.99-8.23-6.67-1.3-.82-2.69-1.32-4.4-1.13,7.17,5.15,11.6,13.13,11.55,21.97-.01,2.47.13,4.76-.61,7.19-.58-1.11-.19-2.09-.09-3.16.62-6.27-.54-12.55-3.97-17.87l-2.73-3.55ZM326.47,97.84c-.05-1.52-.45-2.69-1.08-3.7.14,1.51.57,2.63,1.08,3.7ZM319.36,100.26c-1.16-.94-2.46-1.76-3.97-2.08,1.18.99,2.4,1.63,3.97,2.08ZM325.85,103.9l.68.59,2.92.23c-1.03-1.47-1.76-3.13-2.36-4.73-.05.87.22,2.4-.79,2.61-1.39.28-2.6-.85-4.08-.81l3.64,2.12Z"/>
    <path class="cls-3" d="M314.64,107.81c-2.61.54-4.5,1.48-5.84,3.65-2.62,4.25-4.75,3.63-6.83,4.53-2.27.99-4.59,1.64-7,.89-1.79-.56-2.95-1.97-2.97-3.92-.03-4.12,4.28-7.17,1.11-8.84.01-.08.41-.46.61-.55.53-.25,2.13,1.69.55,4.51-.75,1.33-1.44,2.76-1.58,4.25-.2,2.19,1.09,3.77,3.16,4.16,2.18.41,4.14-.31,6.15-1.17,2.19-.94,4.05-.39,6.71-4.88,1.49-1.7,3.42-3.47,5.92-2.63Z"/>
  </g>
  <g>
    <path class="cls-1" d="M94.73,106.16c-3.54.48-6.73,1.39-9.72,3.37-.73.48-1.49.87-2.45.98l5.1-13.49.74-1.95,3.03-8.82c.81-2.35,1.89-4.53,2.47-6.97.17-.72.24-1.42-.27-2.15-1.3,1.87-1.87,3.78-2.46,5.84-.74,2.58-1.5,5.04-2.72,7.48l-8.34,16.76c-1.15,2.3-4.13,8.14-5,7.83-1.07-.38-1.67-5.39-1.86-7.98-.2-2.74-.2-5.33.01-8.05.15-1.87.34-3.6.17-5.5-1.54,4.66-1.13,23.36,1.91,22.22,1.08-.4,1.82-1.58,2.36-2.64l11.96-23.61-1.69,5.25-4.41,11.22-1.54,4.43c-.08.24.23.89.46.91.19.02.72-.02.97-.16l4.32-2.36c1.92-1.05,3.89-1.83,6.21-1.71-5.93,3.01-9.92,7.48-11.93,13.54-1.43,4.31-2.28,8.66-2.32,13.19h.69c0-7.28,2.29-16.59,7.34-21.49,2.6-2.53,5.45-4.54,8.81-6.02-2.39,3.87,4.97,2.18,6.79,5.54,1.25,2.32,2.6,4.35,5.16,5.36,2.58,1.02,4.47-.91,8.26,1.18,2.19,1.21,4.95.73,6.29-1.36,1.45-2.27,4.39-3.04,6.88-2.09,3.11,1.18,6.12.74,9.02-.75,2.03-1.04,3.39-2.72,3.33-5.25-.07-2.92-1.75-5.7-4.34-7.18-1.26-.72-2.47-1.65-2.8-3.16-.68-3.14-3.26-5.51-6.61-5.49-1.6.01-2.96-.45-4.66-1.06.71,1.45,2.34,1.53,3.74,1.55,3.2.05,6.09,1.63,6.72,4.64.33,1.6,1.13,2.83,2.59,3.61,2.46,1.3,4.3,3.66,4.68,6.4.39,2.82-1.33,4.83-3.77,5.79-5.35,2.11-6.81-.04-10.43-.09-2.08-.03-3.45,1.12-4.56,2.59-1.51,2-4.19,2.35-6.2,1.1-1.7-1.05-3.37-.94-5.24-.71-2.76.35-5.43-1.44-6.53-3.9-.8-1.79-2.18-3.15-4.09-3.76l-4.23-1.37c.47-1.08,1.19-1.65,2.17-1.89,2.76-.31,5.35-.9,7.94-1.76l.49-.59c.6-.72-4.11-.65-8.64,1.15-1.24.49-2.5,1.23-3.8,1.41ZM105.61,103.81c-1.95.68-3.87,1.18-6.1,1.38,1.89-1.02,3.89-1.36,6.1-1.38Z"/>
    <path class="cls-1" d="M66.29,133.94c.15-2.53.18-4.81-.27-7.28-.46-2.49-.88-4.93-1.68-7.37-2.05-6.25-4.54-12.19-7.46-18.08l-4.58-7.71c2.11,1.1,3.26,3.01,4.23,4.99,1.53,3.11,3.53,5.83,5.51,8.66l2.95,4.21c.26.37,1.1.74,1.49.64s.92-.78,1.02-1.28l2.41-12.51c1.36-7.06,1.95-14.06,2.03-21.1l.48,3.51c.03.24.54.61.76.59.22-.02.72-.29.82-.5l2.85-5.9c1.2-2.48,3.3-4.24,5.33-6.05l2.51-2.23,5.81-6.53c1.46-1.64,7.28-4.98,9.75-4.97l-4.17,3.7c-1.13,1.01-2.76,1.44-3.67,2.91,1.48-.39,2.49-1.4,3.58-2.28l4.49-3.62c.3-.24.35-1.43-.02-1.42-2.93.05-9.32,3.7-11.24,6.07l-3.93,4.85c-1.84,2.26-5.96,3.64-9.45,10.21l-2.69,5.06-1.08-5.73c.27-3.8-.22-7.48-1.01-11.22-.75-3.55,1.03-10.32-.53-10.99-.56-.24-1.18,2.11-1,3.74l.66,6.16c.14,3.7.24,7.23.73,10.91,1.05,7.94-.38,17.48-1.76,25.46l-2.3,11.68-.58.76c-.13.17-.8-.22-.93-.42l-3.02-4.46c-1.39-2.06-3.05-3.8-4.2-5.98l-2.78-5.27c-.72-1.37-2.26-1.92-3.46-2.5-3.18-4-3.77-9.24-7.59-12.81l-.55.15c-.55.15.66,2.73,1.75,4.32,1.67,2.44,5.44,7.5,3.4,8.72-2.5,1.49-5.39.89-8.07.55-2.14-.27-3.71-.93-5.16-2.5-1.91-2.07-4.8-2.31-7.2-.84-1.96,1.2-4.58,1.56-6.4-.02-1.69-1.48-3.68-2.21-5.98-1.71-1.53.33-3.3-.07-4.36-1.19-.84-.88-1.01-1.96-.54-3.02.51-1.15.71-2.3.94-3.59.49-2.67,3.92-3.76,6.33-6.2,1.54-1.57,1.82-3.84.95-5.84-.86-1.97-.39-4.1,1.46-5.3,3.54-2.3,6.47-.86,8.8-3.27,2.68-2.78,6.23-2.74,9.9-1.59,3.72,1.17,7.3,1.03,9.69-2.1,1.48-.87,3.29-1.57,3.07-3.21-.18-1.4-1.98-1.12-2.91-2.9-1.19-2.29-3.51-2.13-6.04-1.62-1.31.26-3.03.08-3.71-1.17-1.69-3.12-3.89-2.18-4.65-3.87-.86-1.89,1.27-3.56,3.28-5.01,1.5-1.09,2.36-2.65,2.38-4.52.05-5.84,6.4-8.35,12.23-8.17,1.9.06,3.9-.05,5.31-1.45-2.6.76-4.87,1.08-7.46.99-2.63-.09-5.27.86-7.37,2.3-2.15,1.47-3.27,3.65-3.35,6.2-.07,1.95-1.01,3.46-2.58,4.52-2.06,1.4-3.97,3.41-3.12,5.36.63,1.44,3.5,1.81,4.17,3.07.89,1.67,2.17,2.77,4.23,2.46l2.58-.39c1.39-.21,2.93.35,3.59,1.54,1.13,2.04,2.6,1.92,2.79,2.83.05.25-.25.86-.48,1.01l-2.2,1.35c-1.02.63-2.49,4.28-8.74,2.29-1.83-.58-3.72-.92-5.61-.88-2.35.05-3.97,1.1-5.62,2.63-2.52,2.35-7.78.83-10.15,4.76-1.73,2.86,1.29,5.44.14,7.93-1.49,3.21-4.35,3.42-6.85,6.42-.77.92-.53,1.95-.83,3.04l-.85,3.06c-.28,1.93.78,3.54,2.65,3.97,2.91.68,5.32-1.04,8.01,1.43,2.27,2.08,5.26,1.89,7.77.31,1.79-1.13,4.06-1.05,5.62.27l2.98,2.51c-2.13.19-4.17.25-6.46.18-2.56-.07-5.54.87-6.8,3.22-1.08,2.04-2.22,3.64-4.63,4.25-3.27.82-5.86,3.14-7.12,6.33-.5,1.29-1.07,2.43-2.02,3.44-1.3,1.39-2.48,2.86-3.13,4.7-.74,2.1-.51,4.78,1.25,6.3,2.81,2.42,6.93,2.65,10.22,1.16,3.53-1.61,7.14-2.95,9.93.28,1.99,2.3,5.66,3.19,7.92.71-3.13,1.32-5.72.98-7.72-1.41-2.43-2.91-6.77-1.94-10.26-.21-3.13,1.55-6.93,1.3-9.6-1.01-1.59-1.37-1.82-3.58-1.2-5.51,1.18-3.64,4.24-5.11,4.76-7.03,1.08-3.96,3.98-6.4,7.85-7.4,1.48-.38,2.93-1.52,3.49-2.85.97-2.3,2.71-3.71,5.17-4.19,1.44-.28,3.01-.05,4.52-.11,3.33-.15,6.43-.09,9.78.25,1.52.15,3.25-.18,4.74-.44,1.42-.25,1.86-1.33,1.9-2.87l2.45,4.02c2.5,4.11,4.8,8.09,6.67,12.54,3.24,7.71,6.81,16.13,6.38,24.72-1.13-5.74-1.28-11.71-7.19-14.46-3.36-1.56-7-1.41-10.59-.69-2.78.56-5.18,1.48-7.23,3.5l-3.97,3.24c1.54,0,2.71-1.12,3.68-2.13,2.17-2.27,4.77-3.5,7.83-4.07,2.32-.43,4.49-.69,6.88-.24,10.42,1.95,8.67,12.37,10.32,16.24h.91ZM70.54,57.31l-.27,1.17v-4.57c.56,1.06.54,2.24.27,3.41ZM71.12,69.81c-.17-1.18-.21-2.24-.08-3.32l.43,3.12c.16,1.15.2,2.13.09,3.28l-.44-3.08ZM44.64,81.32c1.25,1.15,2.07,2.53,2.58,4.22-1.11-1.25-1.91-2.56-2.58-4.22Z"/>
    <path class="cls-1" d="M87.71,198.74l4.12,2.59,4.46,1.98c3.56,1.09,7.2,1.17,10.94,1.33,3.3.14,6.66-.67,9.84.79l-8.42-.23c-4.09-.11-8.05-.21-12.03-1-.08.75-.56,1.24-1.26,1.29-4.54.33-9.57-1.29-14.92-1.42-3.48-.09-6.77-.22-10.21-.76-4.66-.72-9.15-.62-13.78.2l-12.54,1.54-2.87-.25-9.94.38c-1.99.08-3.93.76-5.93-.13l15.88-.83.84-.58c4.95-1.31,11.62-3.45,14.33-7.71,1.68-2.64,2.58-5.53,3.26-8.62,1.48-6.77,2.38-13.42,3.4-20.3,1.04-7,1.85-13.77,2.5-20.8.17-1.88-.32-3.78.69-5.58.1,4.68-.21,8.92-.85,13.39l-3.83,26.89c-.56,3.94-1.43,7.64-2.65,11.34-2.55,7.79-8.93,9.65-16.1,11.96,4.38.07,8.45-.39,12.65-1.15,5.3-.96,10.37-1.2,15.69-.29l8.56.67c2.87.22,5.59.56,8.45.86l6.21.65c.65.07,1.32-.23,1.87-.69l-4.77-2.58c-2.29-1.24-4.63-2.52-6.29-4.61-1.47-1.86-2.31-4.23-2.58-6.68-1.02-9.45-1.98-18.75-2.33-28.31-.26-7.01.24-13.78.94-20.88.59,3.4-.06,6.61-.17,9.96-.2,5.94-.34,11.64.18,17.56l1.55,17.74.79,5.57c.39,2.71,1.91,5.2,4.32,6.71Z"/>
    <path class="cls-1" d="M136.8,63.7c-1.79-1.36-3.76-1.14-4.5-2.55-.52-.99-1.29-1.73-2.4-1.89-3.6-.51-3.44-4.13-4.62-5.38-2.84-3.02-7.47-4.3-11.35-2.74-2.99,1.2-6.19,3.5-9.47,1.56-1.46-.86-1.78-2.61-.74-3.98.87-1.15,1.41-2.31,2.01-3.69.77-1.77,3.14-2.49,5.03-2.45,2.26.04,4.41-.08,6.16-1.43,2.95-2.29,1.84-4.4,2.71-7.72.82-3.15-.92-5.97-4.11-6.77-1.37-.35-2.8-.79-3.49-2.18-1.31-2.66-3.86-4.62-6.94-4.7-4.21-.12-7.1,4.58-11.87,1.7-1.91-.22-2.94-1.7-2.94-3.61l.82-2.55c1.51-4.7-1.78-4.93-4.34-7.31-2-1.85-4.77-2.63-7.49-2.37-2.58.25-4.85,1.19-7.13,2.32-3.41,1.7-7.94,1.56-10.09,4.6-1.93,2.72,1.68,5.87-.47,9.49-.62,1.03-1.39,2.01-2.81,2.01l1.76-1.65c2.66-2.5-.23-6.33.38-8.85.45-1.83,1.93-3.14,3.66-3.71l7.19-2.33c1.73-.56,3.21-1.58,5.03-2.06,2.98-.78,6.12-.73,8.82.9l3.04,2.35c1.37,1.06,2.97,1.73,3.36,3.58.65,3.07-1.87,4.75-.71,7.17.43.9,1.37,1.19,2.35,1.62,4.78,2.13,6.36-1.5,10.76-1.9,3.46-.32,6.45,1.7,8.02,4.66,1.26,2.38,3.26,1.66,5.82,3.43,1.58,1.09,2.42,2.9,2.16,4.84l-.58,4.27c-.22,1.62-.29,3.09-1.42,4.33-1.77,1.94-4.24,2.66-6.92,2.46-2.18-.16-4.75.64-5.53,2.81-.34.95-.6,1.78-1.26,2.54-1.1,1-1.11,2.32-.22,3.61,2.12.97,4.55.73,6.78-.35,3.4-2.41,7.52-2.54,11.22-.79,5.96,2.81,3.33,6.94,7.7,7.75,2.45.45,1.9,2.49,4.9,3.42,1.5.47,3.1,1.4,3.62,2.97.48,1.46-.11,3.01-.37,4.51-.18,1.04-.14,2.3-.54,3.23-.71,1.63-2.48,2.4-4.12,2.72-2.25.45-4.01,1.36-5.72,2.91.2-1.29,1.21-2.19,2.32-2.5l3.53-1c1.82-.52,3.91-1.95,4.05-3.97.08-1.14-.1-2.24.24-3.29.5-1.54.03-3.07-1.27-4.05Z"/>
    <path class="cls-1" d="M114.27,83.41c4.87-.13,9.07,3.03,9.11,8.08-1.2-.71-.72-2.34-1.4-3.43-1.77-2.84-4.81-4.19-8.11-4.05-2.39.1-5.33-.58-5.61-2.31-.07-.45.28-1.27.67-1.61,2.26-1.99,5.13-2.01,7.83-.8,3.2,1.6,6.84,1.73,9.9-.23l.6.06c.08,0,.08.09.04.16l-.29.38c-3.1,1.82-6.82,2.04-10.04.35-2.85-1.29-6.33-1.35-7.92,1.11-.75,1.16,1.9,2.38,5.24,2.29Z"/>
    <path class="cls-1" d="M84.17,69.56c-5.39,6.9-7.89,13.27-10.02,21.76-.5-1.17-.01-2.19.28-3.31,2.1-8.01,5.8-15.6,11.66-21.46,1.96-1.96,3.85-3.68,6.27-5.11-1.16,1.71-2.83,2.65-4.3,3.92s-2.68,2.65-3.89,4.19Z"/>
  </g>
  <path class="cls-2" d="M356.41,136.51c-.05-.56-.35-1.07-.82-1.38-.11-.08-.19-.12-.2-.11-5.82-1.89-11.92-1.18-17.46.85-1.26.46-2.03,1.27-2.53,1.99-.51.25-1.48.61-2.76,1.05-.1-.13-.21-.24-.32-.36-.21-.2-.41-.34-.61-.41-.12-.24-.27-.48-.44-.7-.08-.1-.2-.15-.33-.14-.13.01-.23.09-.29.21-.17.37-.3.76-.38,1.15-.32.35-.53.78-.65,1.24-5.95,1.91-18.82,5.68-18.82,5.68l-6.36,2.07-4.36,1.43c-9.86,3.23-19.86,5.81-30.25,8.11-.38.08-.91.31-1.29.49-.64-.19-1.31-.04-1.85.13-.07.02-.13.05-.19.07-.43.03-.86.08-1.26.16-12.18,2.57-24.48,4.15-37.14,4.97l-1.78.11c-.11-.04-.23-.07-.36-.09-.34-.04-.66.04-.89.11-.07.02-.12.04-.18.07l-.6.04c-13.01.6-25.51.24-37.85-.89-.3-.15-.6-.23-.83-.28-.79-.18-1.5-.18-2.12,0,0,0,0,0,0,0-12.33-1.26-24.52-3.27-36.93-5.88-.41-.05-.84-.06-1.25-.1,0,0,0-.01,0-.02-.12-.22-.24-.38-.39-.5-.41-.34-1.03-.35-1.53-.08-1.54-.51-3.22-.66-4.82-1.11l-23.4-6.58-1.53-.48c-6.2-1.63-16.29-4.48-22.19-6.6-.02-.58-.17-1.13-.53-1.6-.19-.25-.55-.47-.91-.48-.23,0-.43.11-.56.3-.1.15-.13.31-.14.43-.02.18,0,.36.02.54-1-.41-1.75-.77-2.18-1.07h0c-.5-.64-2.7-2.1-2.72-2.03,0,0,0,0,0,0-5.58-1.78-11.64-1.69-17.35-.22-.47.12-1.31,0-1.71-.2h-1.3c.18.27.39.51.64.7l-.11.21c-1.44.21-3.01.69-3.79,1.76-.36.49-.18,1.45.36,1.83.58.41,1.73.49,2.64.3l6.54-1.4c4.31-.92,8.87-.22,13.04.86,1.07.28,1.95.35,2.79-.01.57.51,1.6,1.09,2.93,1.7.05.27.11.54.21.82.17.5.43.77.79.81.02,0,.05,0,.08,0,.23,0,.63-.11.87-.79,6.83,2.76,18.03,5.85,20.61,6.56l.08.04c-.65,2.48.86,4.18.23,4.98-.95,1.21-.96,2.31-1.24,3.62l-1.51,7.11c.96.1,1.8.08,2.73-.03l.49.68c1.09.61,2.94-.18,3.95-.2.55,0,2.28.17,2.16-.29l-2.03-7.63-1.42-3.71c.47-.99.77-2.12.6-3.2,9.11,2.79,17.98,5.28,27.1,7.37-.34,1.38.01,2.78.46,4.08-1.27,1.9-1.45,3.83-1.88,5.94l-1.11,5.47c-.14.7.97.43,3.85,1.01,2.91.58,2.67-.13,4.54-.02.35.02.78-.48.7-.78l-2.06-7.44-.86-3.71.26-3.7c11.87,2.5,23.68,4.49,36.16,5.78l-3.06,6.25,2.27,2.86-2.34,3.31,2.47,2.9-2.41,3.22,4.18,3.99,2.48-1.9,3.65-4.02-4.22-3.02,2.66-2.85c.47-.5.29-1.12-.32-1.53l-3.3-2.22,2.15-3.21-.17-3.43c12.6,1.1,24.89,1.34,37.33.88-.35,1.49.05,2.95.7,4.31-1.36,1.85-1.58,3.9-1.95,6.05l-1.17,6.91,2.86.4c1.04.14,1.4.34,2.39.26l2.37-.23c.61-.05,1.59-.14,2-.41l-2.37-8.08c-.5-1.71-.42-3.28-1.47-4.84.48-1.34,1-2.85.65-4.59,12.72-.83,25.1-2.47,37.45-4.8l-3.53,7.12,3.89,2.84-3.62,3.95,4.24,3.04-3.87,3.83,5.47,4.21,5.98-6.97-4.72-3.2,3.45-4.18-4.58-3.23,1.85-2.92c.98-1.55.17-3.02.05-5.41,11.08-2.45,21.53-5.36,32.25-8.82l.57,2.91c-.97,1.73-1.1,3.5-1.45,5.39l-1.05,5.71,2.56.18c.86.61.98.61,2.07.46l4.04-.63-2.27-7.55-.69-3.4.08-4.32c.18-.05.34-.11.5-.16,3.79-1.12,15.56-5.35,23.02-8.05.52.83,1.51,1.33,2.48,1.33.32,0,.64-.05.95-.17.19-.07.28-.28.21-.47-.05-.14-.19-.23-.34-.23.09-.18.15-.37.19-.56.07-.39.07-.79.02-1.17,1.59-.58,2.64-.97,2.85-1.04v-.02c.6.07,1.15.02,1.84-.17l5-1.36c4.63-1.26,7.97,1.34,11.61,1.32h0s.47,0,.47,0l.03.25c.31-.04.58-.21.78-.48.49-.68.48-1.96.4-2.83ZM84.03,137.4c-.6.3-1.39.36-2.28.26-4.2-.84-8.07-.93-12.35-.87,4.73-1.29,9.85-.84,14.64.61ZM62.86,140.71c-.32.02-.96-.29-1.22-.56l2.32-1.53.78-1.15.19-.15,1.3.19c-2.51,1.44-1.92,3.09-3.37,3.19ZM81.17,139.59c-5.5-1.18-10.79-.9-16.33.98.24-1.22,1.21-2.22,2.53-3.1,4.74-.41,9.38-.11,14.06.73,1.65.29,3.3.47,4.14,2.02l-4.4-.63ZM83.61,138.18l1.23-.7c.65.54,1,.85,1.52,1.79l-2.75-1.09ZM88.98,141.53c-.97-.46-1.72-.88-2.2-1.26.08-.05.15-.11.23-.18l.09-.39c.5.27,1.18.58,2.01.92-.08.28-.13.59-.13.91ZM90.13,143.24s-.1-.06-.18-.32c-.02-.06-.04-.13-.07-.22.15.06.3.13.45.19-.08.23-.17.33-.2.34ZM90.51,142.21c-.27-.11-.53-.23-.79-.34-.02-.25-.02-.53.02-.8.23.31.52.57.86.74-.02.13-.06.26-.1.4ZM90.12,140.26s-.02-.03-.03-.05c.05-.07.11-.14.18-.2.09-.09.13-.21.1-.33.16.24.24.51.28.79-.18-.07-.36-.14-.54-.2ZM114.68,150.79l-.28,2.77-.37-.82-.87.83c-.91-1.18-.9-2.21-.47-3.42l1.99.65ZM91.2,142.49c.08-.34.15-.68.19-1.02,7.04,2.49,19.1,5.75,22.11,6.55l-1.32,1.12c-5.75-1.54-15.21-4.32-20.98-6.64ZM111.72,163.89c-.1.62-.34,1.14-1.48,1.21l1-5.15c.33-1.7.2-3.29,1.15-4.82l-.66,8.77ZM112.74,165.8c-.46-.27-.79-1.08-.74-1.6.32-3.12.54-6,1.58-9.09l1.54,10.45-2.38.24ZM115.16,156.45l2.34,8.83c-.84.14-1.5-.38-1.6-1l-1.19-7.94.45.1ZM266.48,160.46s-.07.01-.11.02c-.4-.21-.74-.6-.68-1.02.07-.51.68-.81,1.17-.96.22-.07.46-.13.7-.16-.52.77-.84,1.3-1.08,2.12ZM226.54,163.97c.28.21.56.45.74.71-.34-.24-.69-.39-1.08-.37-.66.03-1.13.3-1.43.73-.18,0-.38-.1-.44-.25-.09-.19-.02-.44.17-.64.15-.16.4-.29.7-.4.31-.02.62-.03.93-.05.15.07.29.16.43.27ZM186.35,163.17c.25.19.41.45.42.7.01.26-.14.5-.36.68-.41-.3-.86-.61-1.22-.7-.43-.11-1.36.23-1.91.57l.22-.26c-.29-.25-.56-.52-.55-.78.01-.29.38-.52.71-.61.08-.02.17-.04.25-.05.64.06,1.28.13,1.93.19.2.07.37.15.51.26ZM145.73,162.11c-.36.21-1.86.02-1.9-.32l-.36-3.06,2.23.33.03,3.05ZM145.55,158.34l-.17-.04.11-.04.06.08ZM115.61,150.37l-.41-1.9c9.13,2.84,18.11,5.32,27.62,7.47-.21.27-.36.61-.43,1-.04.24-.05.49-.04.72h-.06c-9.19-1.95-17.84-4.66-26.67-7.29ZM143.09,157.82c-.02-.26-.02-.51.02-.76.07-.39.25-.72.5-.9.02-.01.04-.02.07-.03.12.03.24.06.36.08l1.16,1.63.18.46-2.29-.48ZM146.73,168l1.74,6.37c-.84.09-1.73-.4-1.79-1.02l-1.64-6.54c-1.13,2.84.6,5.1.88,7.91l-1.24-.76-.7.6c-.14.12-.12-.22-.22-.4.21-3.1.56-6.22.47-9.32-.64,2.9-1.16,6.1-1.01,9.18l-2.15-.14,2.32-9.11c.12-.46-.15-.99.2-1.2.41-.24,1.93-.13,2.3.18l.84,4.24ZM146.5,158.61l-.89-2.03c12.2,2.78,24.4,4.72,36.96,6.02-.19.2-.33.45-.34.76-.02.44.22.8.47,1.06-12.24-1.24-24.31-3.31-36.19-5.8ZM183.88,172.21l4.13,2.98-3.43,3.48,4.2,3.02-4.79,5.03-2.9-3.06,2.18-3.25-2.32-2.89,2.14-3.41-2.24-2.89,2.81-6,.47.05c.43.16.91.3,1.4.3.1,0,.19,0,.29-.02.03,0,.06-.01.1-.02l.1,3.44-2.14,3.24ZM187.16,164.81c.22-.27.35-.6.33-.98-.01-.27-.12-.54-.28-.78.15.01.3.03.45.04,12.39,1.11,24.36,1.32,36.22.74-.32.36-.41.8-.24,1.17.14.32.48.53.85.61,0,0,0,.01,0,.02-12.48.58-24.92.33-37.31-.82ZM224.85,166.25h.09s0,.13,0,.13h.06c.45,0,.9-.04,1.34-.13h1.08s-.21,3.32-.21,3.32c-.01.22-.55.67-.79.74-1.3.39-1.78-1.82-1.58-4.06ZM229.08,178.83l1.21,4.46c-1.71.14-2.97.51-4.58.33l-2.93-.42.99-5.7c.36-2.08.29-3.96,1.25-5.92l2.21.06c1.23,2.34,1.18,4.71,1.84,7.18ZM228.15,165.46s-.02-.02-.02-.02c.05-.13.08-.27.05-.44-.1-.56-.55-.99-1.01-1.35,12.67-.77,25.24-2.44,38.07-4.88-.13.21-.19.41-.22.59-.07.49.13.94.44,1.29-12.08,2.29-24.39,4.01-37.31,4.81ZM267.47,169.02l4.27,3.04-2.79,3.17c-.39.44-.4,1.17.08,1.5l3.77,2.57-4.82,5.84-3.9-3.07,2.99-3.85-3.38-3.14,3.49-3.89-3.94-2.94,3.52-7.07,2.49-.65c.39,1.31-.77,2.26-.09,3.39,1.07,1.8-1.25,2.78-1.68,5.09ZM302.57,150.88c-10.55,3.4-21.32,6.41-32.32,8.88-.06-.44-.28-.8-.48-1.08-.15-.21-.37-.48-.65-.69l8.48-1.95c8.75-2.01,17.07-4.46,25.4-7.23l-.42,2.07ZM303.69,151.35c.18-.28.77-.4,1.74-.65l-.07,2.98c-.48.07-1.4.18-1.45.03l-.29-.94c-.09-.3-.11-1.15.07-1.43ZM308.15,165.17c-1.15-.01-1.25-.62-2.39-.93-.42-2.41-.67-4.72-1.31-7.13-.23,2.33-.02,5.06.93,7.18,0,.17.13.51.32.86l-.84.52c-.55-.37-1.07-.58-1.7-.65.25-1.74.65-3.34.68-5.14-.87,1.49-1.42,3.4-1.01,5.12-.4,0-.84.04-1.37.14l1.06-5.41c.26-1.31.23-3.23,1-4.31.17-.24,1.39-.46,1.66-.3.27.16.67.56.76.87l2.2,9.18ZM305.99,149.67l-1.02-1.45,5.99-2.01s11.28-3.2,18.54-5.53c0,.26.04.51.12.76-8.05,2.92-21.12,7.61-23.63,8.22ZM332.31,139.77c.11.19.2.4.26.61-.13.05-.27.1-.41.15.02-.24.01-.47,0-.71.05-.02.1-.03.15-.05ZM330.93,139.01s.03-.03.05-.05c.08-.07.16-.12.23-.15.06.16.11.33.15.51-.15.05-.32.1-.48.16,0-.16.02-.32.05-.47ZM330.9,140.24c.19-.06.37-.12.55-.18,0,.18,0,.37-.02.55,0,.06,0,.12.03.18-.14.05-.29.11-.44.16-.06-.23-.11-.46-.13-.7ZM332.7,141.88c-.06.32-.25.63-.45.75-.1.06-.18.05-.23.03-.12-.04-.24-.19-.33-.32-.16-.23-.3-.48-.41-.73.51-.19,1-.36,1.45-.53.02.26.02.53-.02.79ZM335.39,139.35c-.48.17-1.2.44-2.11.77-.07-.21-.16-.4-.26-.6.99-.34,1.81-.65,2.37-.88v.71ZM340.43,138.21l-3.54,1.06-.2-.41,3.84-.88-.1.23ZM355.42,138.91s-.03.03-.04.04c-2.17-1.24-4.57-1.43-7.07-1.63-4.13-.31-8.08-.33-12.04.89.6-1.45,1.99-1.66,3.23-2.1,5.04-1.79,11.2-2.35,16.04-.27l.17,1.02c.05.8,0,1.66-.28,2.05Z"/>
</svg>